#!OML:ASF E:\Style4\Style4.ASF
:FULLY-SPECIFIED
:DEGREES
3869
root 0.369351 17.3442 -1.94062 5.68943 -13.6015 2.47371
lowerback 16.3972 2.49245 -3.82191
upperback 9.26659 2.59493 -4.13237
thorax 0.730671 1.22832 -2.59509
lowerneck 0.91473 -3.88438 -5.8522
upperneck 0.978888 -5.3181 9.56888
head 0.611905 -2.67076 4.14644
rclavicle 5.84427e-014 -8.42847e-014
rhumerus 56.7241 -19.2877 -28.7207
rradius 51.441
rwrist -12.5154
rhand 29.927 4.99928
rfingers 7.12502
rthumb 53.6414 -14.0784
lclavicle 5.84427e-014 -8.42847e-014
lhumerus 57.3914 -17.8004 29.8456
lradius 66.3968
lwrist 5.88788
lhand 24.7728 25.5032
lfingers 7.12502
lthumb 48.9525 47.259
rfemur -33.8408 2.48199 15.5823
rtibia 44.685
rfoot -15.1334 -10.6975
rtoes -16.0415
lfemur -29.0716 10.5155 -22.5019
ltibia 43.8239
lfoot -21.3023 10.9596
ltoes -15.1976
3870
root 0.361946 17.3205 -1.9622 5.60386 -13.4919 2.5692
lowerback 16.5366 2.60442 -3.83117
upperback 9.33611 2.73721 -3.88369
thorax 0.72131 1.29239 -2.35414
lowerneck 1.38016 -4.07889 -5.97509
upperneck 0.52985 -5.56555 9.25975
head 0.39866 -2.81023 4.07349
rclavicle -2.10712e-014 0
rhumerus 57.5595 -17.6207 -29.1694
rradius 50.2243
rwrist -12.3507
rhand 30.2667 5.02356
rfingers 7.12502
rthumb 53.9466 -13.8505
lclavicle -2.10712e-014 0
lhumerus 57.346 -17.7734 30.3688
lradius 66.3164
lwrist 6.16308
lhand 24.2267 25.49
lfingers 7.12502
lthumb 48.4503 47.49
rfemur -34.103 2.45809 15.5215
rtibia 45.2091
rfoot -15.3048 -10.8329
rtoes -15.9675
lfemur -29.319 10.5001 -22.5678
ltibia 44.2345
lfoot -21.3647 10.9426
ltoes -15.5602
3871
root 0.354725 17.2983 -1.98158 5.53768 -13.3876 2.82933
lowerback 16.7106 2.77576 -3.8491
upperback 9.38811 2.95045 -3.76135
thorax 0.682482 1.39549 -2.25577
lowerneck 1.60775 -4.36119 -5.98731
upperneck 0.250628 -5.93434 9.04222
head 0.292313 -3.00179 4.00388
rclavicle -6.04305e-014 3.18055e-015
rhumerus 58.0719 -16.0891 -29.4995
rradius 48.9944
rwrist -12.2522
rhand 30.6069 4.92455
rfingers 7.12502
rthumb 54.2517 -13.7418
lclavicle -6.04305e-014 3.18055e-015
lhumerus 57.4879 -17.8241 31.0156
lradius 66.2644
lwrist 5.7894
lhand 24.4091 25.3909
lfingers 7.12502
lthumb 48.6181 47.3101
rfemur -34.4381 2.41724 15.2697
rtibia 45.7242
rfoot -15.4222 -10.9718
rtoes -16.3827
lfemur -29.5818 10.4095 -22.8131
ltibia 44.5926
lfoot -21.441 10.8416
ltoes -15.5012
3872
root 0.345408 17.2761 -2.00069 5.43952 -13.279 3.00052
lowerback 16.9327 2.93391 -3.81024
upperback 9.45519 3.15195 -3.60706
thorax 0.634748 1.49388 -2.15647
lowerneck 1.80919 -4.61774 -6.00322
upperneck -0.0116021 -6.27011 8.85189
head 0.193871 -3.17562 3.94558
rclavicle -1.03368e-014 -2.8625e-014
rhumerus 58.2175 -14.5053 -29.5303
rradius 48.1372
rwrist -12.4218
rhand 30.8849 4.85311
rfingers 7.12502
rthumb 54.5007 -13.6406
lclavicle -1.03368e-014 -2.8625e-014
lhumerus 57.5943 -17.7972 31.7568
lradius 66.1654
lwrist 4.86974
lhand 25.4582 25.1663
lfingers 7.12502
lthumb 49.5815 46.606
rfemur -34.6977 2.41315 15.1269
rtibia 46.2115
rfoot -15.5523 -11.1371
rtoes -16.6289
lfemur -29.7632 10.3181 -22.9294
ltibia 44.9186
lfoot -21.6184 10.6421
ltoes -14.8004
3873
root 0.334366 17.2534 -2.01939 5.35145 -13.1377 3.04379
lowerback 17.1528 3.05229 -3.72272
upperback 9.53819 3.31056 -3.39692
thorax 0.602826 1.57086 -2.0188
lowerneck 1.95812 -4.84492 -6.00864
upperneck -0.251689 -6.56652 8.62759
head 0.106479 -3.32776 3.87308
rclavicle 6.95746e-015 -4.17448e-014
rhumerus 58.4192 -12.9 -29.6482
rradius 47.216
rwrist -12.5577
rhand 31.1632 5.0449
rfingers 7.12502
rthumb 54.7495 -13.2734
lclavicle 6.95746e-015 -4.17448e-014
lhumerus 57.5842 -17.7685 32.3275
lradius 66.2344
lwrist 4.38015
lhand 25.9943 25.218
lfingers 7.12502
lthumb 50.0725 46.4026
rfemur -34.903 2.43994 15.1355
rtibia 46.6732
rfoot -15.6845 -11.3807
rtoes -16.9674
lfemur -29.9128 10.3098 -22.9141
ltibia 45.2141
lfoot -21.6819 10.4725
ltoes -14.4712
3874
root 0.324324 17.2318 -2.03913 5.26156 -12.9809 3.16192
lowerback 17.3352 3.18932 -3.70744
upperback 9.60329 3.48509 -3.21028
thorax 0.568772 1.65382 -1.86745
lowerneck 2.36626 -5.07335 -6.04838
upperneck -0.594799 -6.87181 8.51539
head -0.054044 -3.49052 3.85856
rclavicle -5.96354e-014 2.94201e-014
rhumerus 58.5783 -11.2889 -29.8091
rradius 46.1938
rwrist -12.7326
rhand 31.1387 5.2792
rfingers 7.12502
rthumb 54.7276 -13.0547
lclavicle -5.96354e-014 2.94201e-014
lhumerus 57.6163 -17.869 32.8153
lradius 66.374
lwrist 4.10194
lhand 26.15 25.3313
lfingers 7.12502
lthumb 50.2149 46.4405
rfemur -35.1087 2.47474 15.052
rtibia 47.0972
rfoot -15.7988 -11.6305
rtoes -17.1281
lfemur -30.0846 10.2709 -22.9854
ltibia 45.4857
lfoot -21.6485 10.3472
ltoes -14.1861
3875
root 0.315063 17.2148 -2.05403 5.14596 -12.8889 3.46232
lowerback 17.4378 3.38782 -3.84294
upperback 9.72799 3.72421 -3.07418
thorax 0.635348 1.7633 -1.69074
lowerneck 2.70855 -5.34804 -6.12882
upperneck -0.998076 -7.23599 8.48044
head -0.21303 -3.68196 3.8794
rclavicle 4.81059e-014 -2.98177e-015
rhumerus 58.6679 -9.83774 -30.2718
rradius 45.1633
rwrist -12.5174
rhand 31.2239 5.55648
rfingers 7.12502
rthumb 54.8038 -12.7232
lclavicle 4.81059e-014 -2.98177e-015
lhumerus 57.8048 -17.9608 33.3234
lradius 66.461
lwrist 3.83674
lhand 26.306 25.3162
lfingers 7.12502
lthumb 50.3575 46.3492
rfemur -35.304 2.4865 14.7561
rtibia 47.4779
rfoot -15.8896 -11.7834
rtoes -17.0965
lfemur -30.2229 10.2665 -23.2754
ltibia 45.7161
lfoot -21.6595 10.297
ltoes -14.4781
3876
root 0.304311 17.2012 -2.06601 5.07345 -12.7628 3.61833
lowerback 17.4883 3.58689 -3.78708
upperback 9.96247 3.99959 -2.92166
thorax 0.855663 1.89611 -1.60312
lowerneck 2.50371 -5.67843 -6.0312
upperneck -1.17353 -7.65925 8.31489
head -0.209746 -3.88992 3.79491
rclavicle -4.33351e-014 1.5704e-014
rhumerus 58.5662 -8.61712 -30.9616
rradius 44.313
rwrist -11.9658
rhand 31.902 5.51366
rfingers 7.12502
rthumb 55.4083 -12.3255
lclavicle -4.33351e-014 1.5704e-014
lhumerus 58.2157 -17.9872 33.7812
lradius 66.5337
lwrist 3.80387
lhand 26.1774 25.3002
lfingers 7.12502
lthumb 50.2398 46.3961
rfemur -35.4488 2.48729 14.6284
rtibia 47.8044
rfoot -15.9644 -12.0016
rtoes -17.424
lfemur -30.3484 10.2582 -23.4102
ltibia 45.9213
lfoot -21.6462 10.3687
ltoes -15.4695
3877
root 0.292349 17.1904 -2.0793 5.03842 -12.5645 3.6849
lowerback 17.5565 3.75233 -3.57826
upperback 10.1914 4.25146 -2.7951
thorax 1.07238 2.025 -1.62457
lowerneck 2.23074 -6.01431 -5.83325
upperneck -1.26015 -8.0889 8.15371
head -0.170974 -4.09985 3.68775
rclavicle 1.5704e-014 2.68359e-015
rhumerus 58.0783 -7.42703 -31.3473
rradius 44.0063
rwrist -11.6115
rhand 32.4062 5.36557
rfingers 7.12502
rthumb 55.8562 -12.1351
lclavicle 1.5704e-014 2.68359e-015
lhumerus 58.673 -18.0686 34.0769
lradius 66.6979
lwrist 3.89429
lhand 25.8896 25.3145
lfingers 7.12502
lthumb 49.9767 46.5494
rfemur -35.5751 2.43847 14.6105
rtibia 48.078
rfoot -15.9997 -12.2079
rtoes -17.5323
lfemur -30.499 10.2326 -23.4538
ltibia 46.096
lfoot -21.5025 10.4698
ltoes -16.6606
3878
root 0.282035 17.1807 -2.09096 5.02311 -12.3282 3.72501
lowerback 17.5748 3.86524 -3.37483
upperback 10.3803 4.43616 -2.6509
thorax 1.27015 2.12056 -1.6108
lowerneck 2.12924 -6.26567 -5.69035
upperneck -1.3614 -8.41352 8.00125
head -0.174039 -4.26045 3.60273
rclavicle -4.43911e-014 -4.19933e-015
rhumerus 57.5223 -6.16386 -31.693
rradius 43.9234
rwrist -11.2641
rhand 32.7544 5.50495
rfingers 7.12502
rthumb 56.1648 -11.7563
lclavicle -4.43911e-014 -4.19933e-015
lhumerus 58.9661 -18.1766 34.3884
lradius 66.8139
lwrist 3.89431
lhand 25.7715 25.2975
lfingers 7.12502
lthumb 49.8685 46.589
rfemur -35.6771 2.36256 14.6185
rtibia 48.3067
rfoot -16.0545 -12.3724
rtoes -17.393
lfemur -30.6361 10.1298 -23.4586
ltibia 46.2469
lfoot -21.3839 10.3731
ltoes -16.778
3879
root 0.271268 17.1721 -2.09937 4.99347 -12.0808 3.76388
lowerback 17.5221 3.98312 -3.21444
upperback 10.5874 4.62601 -2.46028
thorax 1.51733 2.21524 -1.51909
lowerneck 2.03351 -6.48688 -5.65977
upperneck -1.38019 -8.70459 7.89439
head -0.14793 -4.40358 3.55283
rclavicle 5.66536e-014 -3.98066e-014
rhumerus 57.027 -5.08576 -32.7205
rradius 43.7393
rwrist -10.3367
rhand 33.4909 5.81301
rfingers 7.12502
rthumb 56.8151 -10.926
lclavicle 5.66536e-014 -3.98066e-014
lhumerus 59.1595 -18.3116 34.7883
lradius 66.9514
lwrist 3.90773
lhand 25.6609 25.0524
lfingers 7.12502
lthumb 49.7673 46.3965
rfemur -35.7358 2.31366 14.6173
rtibia 48.5202
rfoot -16.1 -12.5996
rtoes -17.5192
lfemur -30.7178 10.0261 -23.4549
ltibia 46.3412
lfoot -21.34 10.2207
ltoes -16.7608
